<?xml version="1.0" standalone="no"?>
<!DOCTYPE svg PUBLIC "-//W3C//DTD SVG 20010904//EN"
 "http://www.w3.org/TR/2001/REC-SVG-20010904/DTD/svg10.dtd">
<svg version="1.0" xmlns="http://www.w3.org/2000/svg"
 width="800.000000pt" height="800.000000pt" viewBox="0 0 800.000000 800.000000"
 preserveAspectRatio="xMidYMid meet">
<metadata>
Created by potrace 1.14, written by Peter Selinger 2001-2017
</metadata>
<g transform="translate(0.000000,800.000000) scale(0.100000,-0.100000)"
fill="#000000" stroke="none">
<path d="M2753 7979 c-5 -16 -11 -20 -32 -16 -32 7 -164 -30 -156 -43 3 -6 23
-7 43 -5 33 5 35 4 19 -8 -9 -8 -36 -18 -60 -21 -28 -5 -37 -10 -28 -15 7 -5
23 -6 35 -3 15 3 18 2 11 -6 -6 -7 -25 -15 -43 -18 -28 -6 -31 -4 -26 11 5 13
3 16 -7 11 -8 -3 -22 -9 -31 -12 -26 -9 -22 -23 7 -30 43 -11 28 -20 -57 -32
-70 -10 -160 -42 -178 -63 -3 -3 -13 -8 -22 -12 -11 -4 -15 -12 -12 -22 5 -12
18 -14 73 -10 l66 6 -50 -21 c-27 -12 -54 -26 -59 -31 -6 -5 -21 -9 -34 -9
-13 0 -21 -4 -18 -9 3 -4 -7 -14 -22 -21 l-27 -13 40 -12 40 -13 -40 -16 c-60
-24 -130 -64 -129 -73 0 -4 -6 -14 -14 -22 -12 -13 -12 -16 3 -28 21 -14 18
-19 -52 -92 -24 -24 -43 -53 -43 -63 0 -10 -6 -18 -14 -18 -20 0 -38 -26 -42
-62 -2 -18 -10 -35 -17 -40 -9 -6 -9 -8 1 -8 6 0 12 -7 12 -16 0 -8 -4 -12
-10 -9 -5 3 -7 0 -4 -8 3 -8 -2 -20 -10 -27 -9 -7 -13 -16 -10 -21 3 -5 -4
-25 -16 -43 -15 -26 -17 -35 -8 -39 10 -4 10 -7 -1 -15 -10 -7 -10 -11 -1 -14
10 -3 10 -9 0 -28 -7 -14 -16 -27 -19 -30 -15 -13 -30 -50 -21 -55 5 -3 2 -17
-6 -33 -7 -15 -14 -33 -14 -39 0 -7 -4 -13 -9 -13 -8 0 -24 -32 -26 -52 0 -3
-3 -10 -7 -14 -14 -13 -9 -24 10 -24 16 0 18 -8 15 -72 -4 -100 -6 -110 -33
-168 -20 -43 -22 -53 -10 -60 8 -5 18 -6 24 -3 6 4 6 -1 1 -13 -4 -10 -9 -37
-10 -60 -1 -22 -5 -46 -8 -52 -4 -5 -1 -12 5 -15 9 -3 7 -11 -9 -27 -14 -16
-19 -28 -13 -39 8 -17 36 -172 45 -251 3 -25 7 -63 11 -85 3 -22 5 -57 5 -78
0 -22 3 -35 9 -32 6 3 10 -1 10 -9 0 -8 -4 -18 -10 -21 -15 -9 -12 -35 4 -35
10 0 14 -14 14 -52 1 -159 26 -288 74 -381 5 -10 6 -27 3 -38 -4 -13 -1 -25 9
-32 10 -8 16 -30 17 -64 1 -31 6 -51 13 -50 6 1 11 -11 11 -28 1 -39 15 -97
27 -112 5 -7 7 -21 3 -33 -3 -11 -2 -20 3 -20 11 0 32 -45 32 -69 0 -19 26
-36 33 -23 10 16 27 155 37 297 13 174 17 195 37 195 10 0 14 -7 10 -20 -3
-12 -1 -17 5 -14 13 8 5 -95 -10 -123 -16 -28 -15 -33 3 -33 8 0 15 -4 15 -10
0 -5 7 -10 15 -10 17 0 20 -16 5 -25 -16 -10 -12 -25 5 -19 18 7 20 -17 2 -35
-9 -10 -9 -15 0 -18 8 -3 10 -27 6 -80 -6 -71 -5 -77 18 -94 13 -10 18 -19 12
-19 -7 0 -13 -5 -13 -11 0 -6 9 -8 21 -4 18 6 20 4 14 -14 -5 -16 -2 -21 11
-21 9 0 23 -8 30 -17 8 -11 13 -13 14 -5 0 7 14 12 35 12 19 0 35 4 35 9 0 5
11 16 25 25 24 16 25 15 25 -3 0 -11 -9 -23 -20 -26 -33 -10 -24 -27 10 -20
29 6 30 5 24 -19 -7 -31 -1 -33 25 -7 12 12 27 17 40 14 17 -4 21 -13 21 -45
0 -36 -2 -39 -22 -34 l-23 6 23 -11 c12 -7 22 -21 23 -33 0 -15 2 -17 6 -6 11
27 33 42 51 34 16 -7 16 -7 0 -11 -26 -6 -22 -22 7 -33 34 -13 32 -21 -4 -14
-41 8 -46 -9 -10 -35 20 -15 34 -19 42 -13 7 5 34 8 60 7 84 -4 154 15 249 65
20 11 44 20 52 20 8 0 21 9 28 19 8 11 26 23 41 26 15 4 27 11 27 15 0 4 15
14 33 21 17 7 52 34 77 59 47 49 116 90 138 83 7 -3 10 1 6 11 -4 11 -1 16 11
16 9 0 14 4 11 9 -3 5 6 21 19 35 14 15 25 30 25 33 0 3 14 23 31 44 17 21 28
43 25 47 -3 5 1 18 9 28 8 10 15 27 15 37 0 9 4 17 9 17 5 0 9 23 9 50 0 28 4
56 9 63 5 6 15 31 22 55 14 51 68 94 144 117 28 8 57 21 66 29 30 26 59 28 80
7 12 -12 23 -21 26 -21 3 0 5 -2 5 -5 -1 -14 34 -69 59 -93 16 -15 38 -48 51
-74 12 -25 28 -49 36 -52 8 -3 14 -12 14 -21 0 -8 4 -15 9 -15 5 0 13 -9 16
-20 4 -11 11 -18 16 -15 5 4 9 -3 9 -14 0 -12 6 -21 14 -21 8 0 17 -12 20 -26
4 -14 20 -33 36 -42 17 -10 30 -25 30 -37 0 -30 15 -47 36 -43 11 2 30 -9 47
-27 l28 -30 -3 43 c-4 47 1 51 27 22 10 -11 26 -20 35 -20 10 0 23 -7 30 -15
7 -8 22 -15 35 -15 14 0 26 -9 33 -25 7 -16 20 -25 34 -25 21 0 64 -19 45 -20
-12 0 12 -40 24 -40 6 0 9 7 5 15 -3 8 -1 15 3 15 5 0 11 -5 13 -11 2 -7 20
-14 38 -15 19 -2 52 -6 73 -8 21 -2 43 -8 50 -15 15 -15 27 -14 27 4 0 19 24
19 39 1 13 -16 89 -15 100 1 3 6 16 15 27 21 16 8 20 18 17 37 -3 15 -1 25 6
25 7 0 10 -3 7 -8 -2 -4 3 -16 11 -27 14 -19 15 -18 8 13 -10 48 12 69 70 66
39 -3 45 0 45 17 0 10 7 19 15 19 27 0 95 32 95 45 0 7 22 18 50 25 28 7 50
15 50 20 0 4 18 10 40 14 22 3 40 10 40 15 0 12 56 19 73 9 8 -4 28 -3 45 1
20 6 34 5 41 -2 9 -9 14 -9 20 1 6 10 13 11 34 1 20 -9 30 -9 41 0 11 9 15 9
19 -1 3 -7 6 -3 6 10 1 14 -3 21 -10 17 -7 -5 -8 5 -4 32 10 57 13 63 28 57 8
-3 17 2 20 10 4 9 11 16 17 16 6 0 8 -4 5 -10 -8 -13 5 -13 25 0 12 8 12 10 1
10 -10 0 -12 10 -7 42 4 27 3 44 -5 48 -8 6 -8 9 0 14 6 4 11 2 11 -3 0 -6 5
-11 10 -11 15 0 12 19 -4 36 -17 16 -42 18 -51 4 -4 -6 -11 -5 -19 3 -20 18
-8 29 24 22 20 -4 29 -2 33 9 4 9 11 16 18 16 6 0 9 -6 6 -14 -3 -7 5 -23 19
-35 28 -24 54 -82 54 -121 0 -16 9 -50 21 -77 31 -70 38 -98 54 -198 10 -69
11 -91 2 -97 -9 -6 -9 -8 1 -8 17 0 12 -42 -5 -48 -7 -2 -13 4 -13 12 0 18
-24 31 -39 22 -7 -5 -7 -15 -1 -31 5 -14 6 -25 2 -25 -13 0 -31 -49 -19 -53
14 -4 11 -68 -4 -77 -8 -6 -8 -9 1 -12 11 -3 21 -77 10 -76 -3 1 -13 -2 -23
-7 -12 -5 -24 -1 -37 10 -18 16 -20 17 -20 2 0 -10 -7 -17 -15 -17 -8 0 -15
-7 -15 -15 0 -8 -4 -15 -9 -15 -5 0 -11 7 -15 15 -3 8 -15 15 -26 15 -11 0
-20 5 -20 10 0 6 7 10 15 10 23 0 18 20 -11 46 -31 29 -38 30 -31 4 4 -16 2
-18 -13 -10 -26 14 -34 -4 -17 -32 9 -15 12 -32 7 -48 -6 -20 -8 -21 -9 -5 -1
14 -4 16 -13 7 -8 -8 -8 -15 2 -27 8 -10 9 -15 1 -15 -17 0 -13 -28 7 -39 16
-10 16 -12 -3 -26 -18 -14 -21 -14 -32 2 -7 9 -13 15 -14 12 -10 -53 -8 -63
13 -87 15 -16 19 -26 11 -29 -8 -3 -10 -15 -6 -34 5 -25 2 -29 -16 -29 -12 0
-20 -3 -18 -7 3 -5 -17 -6 -44 -5 -52 4 -66 -12 -34 -38 8 -7 15 -17 15 -22 0
-5 10 -18 22 -28 l23 -18 -28 -13 c-21 -9 -30 -10 -39 -1 -7 7 -27 12 -45 12
-20 0 -36 6 -39 14 -6 17 -91 31 -107 18 -19 -14 -70 -25 -62 -12 3 5 1 10 -5
10 -6 0 -8 5 -5 10 3 6 17 7 31 4 18 -5 24 -2 24 11 0 14 -6 15 -32 10 -18 -4
-34 -11 -36 -16 -2 -5 -11 -9 -21 -9 -9 0 -22 -5 -28 -11 -8 -8 -18 -7 -35 5
-13 9 -33 14 -44 12 -54 -11 -89 -10 -87 2 2 7 -6 12 -17 12 -11 0 -23 7 -26
15 -5 11 -16 13 -48 9 -34 -6 -39 -4 -28 7 7 8 30 13 57 11 43 -1 45 -1 34 19
-9 17 -17 20 -44 16 -19 -3 -38 0 -45 6 -6 7 -11 8 -10 2 4 -21 0 -33 -15 -39
-12 -4 -13 -2 -2 16 10 16 9 22 -1 25 -10 4 -10 8 -2 19 19 21 1 36 -34 30
-38 -7 -66 16 -68 55 -2 32 -16 49 -40 49 -10 0 -21 7 -24 15 -8 20 -34 19
-34 -2 0 -14 -3 -13 -23 5 -13 12 -29 22 -35 22 -7 0 -12 4 -12 10 0 5 -7 7
-15 4 -11 -5 -13 -2 -9 10 6 15 -9 21 -43 17 -7 -1 -13 5 -13 14 0 8 -4 15 -9
15 -5 0 -11 10 -14 21 -4 15 -11 20 -21 16 -11 -4 -16 -1 -16 12 0 19 -53 51
-86 51 -15 0 -16 -2 -2 -17 9 -10 19 -28 22 -40 4 -12 13 -20 20 -17 18 7 50
-33 51 -64 0 -19 6 -28 25 -32 20 -5 25 -12 25 -35 1 -17 6 -31 13 -31 7 -1
21 -2 32 -3 11 0 20 -5 20 -11 0 -5 -3 -9 -7 -9 -27 4 -30 -5 -26 -71 5 -79 6
-79 -74 -58 -27 7 -52 18 -56 25 -6 9 -14 10 -24 4 -12 -6 -28 -2 -55 15 -21
13 -44 24 -52 24 -8 0 -30 14 -48 30 -18 17 -38 30 -44 30 -7 0 -14 6 -16 13
-3 8 -35 13 -101 15 -57 2 -97 8 -97 14 0 7 -20 8 -54 4 -34 -5 -56 -3 -61 3
-9 16 -35 13 -35 -3 0 -17 -21 -26 -60 -26 -15 0 -33 -7 -40 -15 -7 -8 -21
-15 -31 -15 -11 0 -19 -5 -19 -11 0 -25 -39 -45 -81 -43 -44 2 -69 -12 -69
-41 0 -24 -66 -82 -102 -89 -18 -3 -53 -24 -79 -46 l-48 -40 -18 27 c-11 16
-19 42 -18 58 1 32 66 178 92 207 17 19 30 88 16 88 -4 0 -19 -18 -33 -40 -14
-22 -30 -40 -37 -40 -7 0 -15 -11 -19 -24 -3 -14 -14 -32 -25 -42 -10 -9 -16
-20 -13 -25 2 -4 -12 -11 -31 -15 -26 -4 -35 -11 -31 -21 4 -8 -3 -17 -17 -23
-12 -5 -16 -9 -9 -9 18 -1 15 -19 -5 -24 -17 -4 -17 -5 0 -6 27 -2 20 -21 -7
-21 -14 0 -28 -5 -31 -10 -4 -6 -10 -8 -15 -5 -5 3 -11 1 -15 -5 -3 -5 -1 -10
5 -10 21 0 5 -44 -20 -58 -22 -12 -22 -13 -3 -9 13 3 24 -1 28 -10 4 -11 0
-14 -14 -10 -24 6 -44 -14 -35 -36 4 -12 1 -14 -17 -10 -14 4 -20 2 -16 -4 4
-6 0 -14 -9 -17 -22 -8 -26 -8 -19 4 3 6 2 10 -3 10 -6 0 -13 -7 -16 -16 -5
-14 -1 -15 21 -10 16 4 42 10 58 13 17 3 36 10 42 15 7 6 19 8 27 5 8 -3 16
-1 18 5 2 5 26 18 53 27 35 12 49 23 47 34 -4 24 15 29 47 12 28 -14 30 -17
19 -43 -7 -15 -15 -31 -20 -37 -13 -15 -9 -43 8 -64 16 -18 20 -18 57 -5 47
17 47 17 47 4 0 -5 -13 -16 -30 -25 -19 -10 -30 -23 -30 -37 0 -12 -9 -31 -19
-42 -20 -21 -20 -21 7 -21 25 0 27 3 25 38 -2 33 2 39 25 48 18 7 34 7 49 0
13 -6 30 -8 40 -4 10 4 14 2 9 -5 -4 -6 3 -12 16 -14 21 -3 21 -3 -3 -14 -13
-6 -36 -16 -51 -22 -16 -7 -36 -29 -49 -53 -14 -29 -23 -38 -29 -29 -6 9 -9 9
-15 0 -4 -6 -18 -15 -32 -21 -13 -5 -21 -13 -18 -19 3 -5 1 -10 -4 -10 -6 0
-11 7 -11 15 0 8 -8 15 -17 15 -11 0 -14 -3 -7 -8 16 -11 25 -42 10 -36 -7 3
-18 -7 -26 -21 -13 -25 -30 -34 -30 -16 0 5 -7 11 -15 15 -18 7 -55 -22 -55
-44 0 -8 -15 -22 -33 -30 -17 -8 -30 -18 -27 -21 12 -14 -21 -36 -47 -31 -21
4 -25 2 -20 -10 3 -10 -8 -30 -28 -52 -36 -40 -55 -46 -55 -18 0 26 11 34 27
21 10 -9 13 -6 13 15 0 14 5 26 10 26 6 0 10 5 10 10 0 15 -16 12 -34 -6 -10
-10 -16 -11 -16 -4 0 7 -7 10 -15 6 -8 -3 -15 -1 -15 5 0 6 -4 7 -10 4 -5 -3
-10 -15 -10 -27 0 -17 2 -18 15 -8 13 10 15 9 15 -9 0 -23 -28 -29 -47 -10 -7
7 -21 5 -46 -8 -40 -20 -47 -33 -19 -34 13 0 14 -2 2 -6 -8 -4 -23 -17 -34
-30 -14 -18 -25 -23 -42 -19 -17 5 -24 2 -24 -8 0 -32 -23 -63 -54 -74 -28
-10 -32 -16 -28 -37 5 -30 -14 -34 -23 -4 -4 12 -12 18 -21 15 -7 -3 -16 0
-20 6 -4 7 -9 6 -14 -3 -5 -7 -7 6 -4 29 3 33 0 42 -12 42 -10 0 -13 -6 -10
-17 10 -31 -7 -46 -36 -32 -24 10 -25 14 -21 70 5 50 3 59 -11 59 -22 0 -56
31 -56 52 0 21 -16 32 -25 17 -5 -7 -18 0 -37 18 -28 27 -30 27 -43 9 -18 -24
-35 -12 -35 25 0 16 -6 32 -14 35 -7 3 -13 17 -14 30 0 14 -4 35 -10 47 -19
42 -30 103 -31 177 -1 41 -10 143 -21 225 -11 83 -22 170 -24 195 -2 25 -8 70
-12 100 -4 30 -8 83 -8 117 -1 37 -5 62 -11 60 -10 -2 -12 -14 -14 -77 -1 -35
-1 -35 -44 -32 -60 5 -81 -19 -74 -85 3 -26 10 -96 15 -155 6 -59 18 -120 26
-137 9 -16 21 -52 27 -80 6 -27 17 -55 25 -62 8 -6 14 -18 14 -25 0 -8 5 -14
10 -14 6 0 10 -7 10 -15 0 -8 4 -23 10 -33 17 -30 79 -230 86 -277 7 -45 19
-75 30 -75 17 0 18 -12 2 -28 -9 -9 -9 -15 -3 -20 6 -4 10 -16 10 -27 0 -11 3
-24 6 -30 3 -5 9 -22 13 -37 3 -16 11 -28 16 -28 6 0 10 -9 10 -20 0 -11 5
-20 10 -20 6 0 10 -7 10 -16 0 -14 3 -14 15 -4 13 10 15 9 15 -9 0 -11 5 -21
10 -21 6 0 8 -11 4 -27 -7 -25 -6 -27 10 -14 21 18 31 8 17 -17 -15 -27 -14
-32 3 -26 11 4 15 -2 15 -23 0 -43 16 -88 32 -88 15 0 19 -12 11 -34 -3 -7 0
-16 7 -20 6 -4 9 -15 6 -23 -4 -9 -2 -19 4 -22 6 -4 8 -13 5 -21 -3 -7 4 -18
15 -25 12 -6 21 -18 21 -26 0 -11 6 -13 21 -9 20 7 21 4 16 -23 -5 -23 -2 -32
11 -38 9 -4 20 -6 25 -6 4 1 7 -3 7 -8 0 -6 -5 -10 -11 -10 -8 0 -8 -5 1 -15
7 -8 16 -12 21 -9 5 3 12 -3 16 -13 4 -10 11 -21 17 -25 6 -4 11 -18 11 -30 0
-17 5 -22 19 -20 16 3 17 -1 12 -24 -6 -23 -4 -26 13 -21 25 6 56 -26 47 -49
-5 -13 -2 -15 15 -11 20 5 21 3 16 -29 -6 -35 -5 -35 23 -29 25 6 30 3 36 -19
3 -14 11 -26 18 -26 6 0 17 -14 24 -30 8 -17 19 -30 25 -30 7 0 18 -9 25 -20
8 -13 8 -20 1 -20 -5 0 -7 -5 -4 -11 4 -5 12 -8 18 -6 7 2 25 -5 40 -16 20
-14 25 -23 18 -30 -14 -14 -14 -30 -1 -22 6 3 15 3 21 -1 8 -4 7 -9 -2 -15
-11 -7 -10 -9 4 -9 15 0 88 -63 92 -80 1 -3 4 -12 8 -20 3 -8 8 -28 12 -45 4
-16 15 -40 26 -51 14 -15 17 -24 10 -29 -6 -3 -8 -12 -4 -18 4 -6 8 -23 9 -37
2 -14 10 -52 18 -84 8 -33 13 -63 10 -68 -3 -4 -1 -8 4 -8 5 0 7 -11 4 -25 -3
-18 1 -30 14 -40 16 -12 17 -18 7 -44 -6 -17 -7 -31 -2 -31 5 0 9 -4 9 -10 0
-5 -6 -7 -14 -4 -23 9 -128 -50 -184 -103 -29 -27 -52 -52 -52 -56 0 -5 -18
-32 -40 -62 -50 -67 -89 -86 -260 -124 -19 -5 -46 -13 -60 -19 -14 -5 -59 -20
-100 -32 -41 -12 -93 -30 -115 -41 -22 -10 -59 -23 -82 -29 -23 -6 -45 -15
-48 -20 -3 -6 -14 -10 -23 -10 -10 0 -34 -9 -55 -20 -20 -11 -44 -20 -52 -20
-13 0 -83 -31 -157 -71 -10 -5 -23 -9 -29 -9 -6 0 -43 -16 -83 -35 -40 -19
-77 -35 -82 -35 -5 0 -56 -19 -114 -42 -58 -22 -137 -54 -177 -70 -39 -15 -84
-28 -99 -28 -35 0 -147 -41 -262 -96 -51 -24 -96 -44 -100 -44 -5 0 -27 -9
-49 -20 -23 -11 -74 -30 -115 -44 -40 -13 -99 -38 -131 -55 -31 -17 -65 -31
-75 -31 -10 0 -34 -11 -54 -25 -20 -13 -60 -36 -90 -50 -50 -24 -225 -138
-258 -168 -8 -8 -26 -20 -40 -27 -59 -30 -70 -49 -70 -122 l0 -68 4000 0 4000
0 0 624 0 624 -32 6 c-18 4 -53 11 -78 16 -77 15 -122 28 -133 39 -6 6 -22 11
-37 11 -14 0 -34 7 -44 15 -11 8 -30 15 -41 15 -12 0 -30 9 -40 20 -10 11 -24
20 -32 20 -8 0 -31 9 -53 20 -22 11 -48 20 -58 20 -11 0 -54 18 -97 40 -43 22
-88 40 -99 40 -12 0 -31 7 -42 15 -10 8 -28 15 -39 15 -11 0 -34 9 -51 19 -47
28 -188 60 -294 66 -36 2 -85 11 -109 19 -24 9 -55 16 -69 16 -71 0 -144 39
-242 129 -30 28 -58 51 -62 51 -4 0 -16 9 -26 21 -21 22 -129 52 -138 38 -3
-5 -1 -9 4 -9 18 0 62 -88 62 -122 0 -18 4 -39 9 -47 9 -14 -7 -81 -20 -81 -4
0 -10 -16 -13 -35 -5 -26 -12 -35 -26 -35 -11 0 -20 -7 -20 -15 0 -8 -4 -15
-10 -15 -18 0 -10 27 13 43 12 8 18 19 14 23 -4 5 -12 2 -16 -5 -6 -10 -10 -6
-14 15 -7 40 -5 64 5 64 5 0 6 5 3 10 -9 15 -25 2 -25 -20 0 -11 -13 -25 -32
-34 -36 -18 -58 -20 -58 -6 0 6 9 10 20 10 11 0 20 4 20 8 0 15 -57 41 -78 35
-20 -5 -22 -1 -22 31 0 25 -5 36 -14 36 -26 0 -25 15 1 16 13 1 27 4 29 7 8 8
-20 47 -33 47 -20 0 -15 38 5 43 14 3 12 6 -9 15 -29 12 -44 38 -26 45 8 3 5
17 -11 47 -13 23 -19 39 -13 36 15 -9 13 3 -3 33 -9 16 -16 20 -20 12 -6 -9
-11 -9 -22 0 -11 9 -17 9 -29 -1 -12 -10 -15 -10 -15 4 0 9 5 16 12 16 6 0 9
2 6 6 -3 3 -2 21 2 41 11 45 4 63 -24 63 -19 0 -22 5 -19 27 5 40 -9 58 -35
44 -27 -14 -36 -45 -22 -71 9 -18 8 -20 -15 -20 -14 0 -25 2 -25 4 0 18 56
118 71 126 15 9 18 20 16 58 -2 26 -7 53 -11 60 -4 7 -2 12 3 12 6 0 11 5 11
11 0 5 -4 7 -10 4 -6 -3 -10 3 -10 14 0 11 -5 23 -11 27 -6 3 -8 17 -4 31 3
15 2 22 -4 19 -5 -4 -9 6 -9 22 1 16 -2 34 -5 39 -4 5 -6 91 -6 189 1 263 2
297 17 301 6 3 12 13 12 24 0 10 7 19 15 19 10 0 16 11 17 33 0 17 2 45 2 61
1 15 9 34 19 41 21 15 22 29 2 21 -9 -3 -15 0 -15 10 0 8 5 12 10 9 18 -11 22
22 10 79 -9 45 -9 59 4 78 9 15 13 40 10 70 l-3 48 58 -7 c53 -5 66 -2 123 26
82 39 142 104 125 133 -12 18 -13 18 -32 -7 -25 -30 -32 -31 -58 -7 -15 12
-21 14 -24 5 -7 -19 -70 -16 -77 3 -10 27 -7 44 9 44 8 0 15 9 15 20 0 11 -3
20 -8 20 -18 0 -32 40 -22 65 10 26 40 35 40 13 0 -7 12 0 25 15 14 15 25 24
25 19 0 -5 26 -9 58 -9 31 -1 51 2 45 4 -18 6 -16 33 3 54 8 9 21 48 27 86 6
37 11 69 11 69 1 1 11 5 23 8 17 6 25 1 36 -20 l15 -28 15 30 c24 47 42 185
39 304 -1 25 5 51 13 60 21 24 23 120 2 132 -12 6 -17 22 -17 51 0 69 -60 233
-92 253 -30 19 -130 22 -148 4 -3 -3 -27 -16 -55 -30 -27 -14 -61 -36 -75 -49
l-25 -23 -3 32 c-2 20 3 40 15 54 10 11 24 31 31 44 11 20 10 22 -9 22 -17 0
-20 4 -15 23 15 52 36 192 32 204 -3 8 0 22 6 33 9 14 9 22 -1 33 -7 9 -8 16
-2 19 6 1 11 17 11 33 0 35 -6 120 -9 120 -9 0 -9 50 0 61 6 7 8 18 4 24 -13
21 -34 200 -29 249 3 34 0 54 -10 63 -8 9 -12 28 -10 50 3 20 0 39 -5 42 -5 3
-7 15 -4 25 3 10 0 22 -6 25 -6 4 -11 20 -11 36 0 16 -4 32 -10 35 -5 3 -10
23 -10 44 0 21 -8 56 -17 77 -10 22 -18 44 -18 49 -3 35 -40 161 -49 167 -8 5
-7 8 2 8 17 0 15 31 -4 68 -8 18 -13 40 -9 51 4 13 -3 28 -19 46 -19 20 -24
34 -20 51 4 17 1 26 -10 30 -9 3 -16 12 -16 19 0 7 -7 18 -15 25 -8 7 -13 16
-10 20 3 4 -7 15 -20 24 -14 9 -23 22 -19 28 4 6 -1 17 -11 24 -10 8 -15 20
-11 29 4 11 -2 23 -15 34 -14 11 -21 29 -22 54 -1 23 -6 37 -14 37 -7 0 -13 9
-13 21 0 17 -5 20 -32 17 -29 -3 -32 0 -45 40 -12 35 -17 41 -29 31 -22 -18
-27 -5 -16 48 6 26 8 72 5 102 -5 43 -3 52 7 46 10 -6 11 -4 5 11 -4 10 -10
30 -13 44 -8 38 -59 108 -91 125 -16 8 -31 21 -34 29 -3 8 -14 12 -24 10 -23
-6 -101 68 -151 144 -8 12 -20 22 -28 22 -7 0 -17 6 -21 13 -4 7 -30 26 -58
42 -27 16 -68 41 -89 57 -21 15 -47 28 -57 28 -9 0 -19 3 -21 8 -4 9 -106 62
-119 62 -6 0 -18 8 -29 18 -10 9 -36 25 -57 36 -21 10 -45 22 -53 27 -8 5 -40
21 -70 35 -30 14 -72 35 -92 45 -35 18 -73 19 -873 19 l-837 0 -5 -21z m-63
-49 c0 -5 -4 -10 -10 -10 -5 0 -10 5 -10 10 0 6 5 10 10 10 6 0 10 -4 10 -10z
m247 4 c-3 -3 -12 -4 -19 -1 -8 3 -5 6 6 6 11 1 17 -2 13 -5z m-667 -224 c0
-5 -10 -10 -22 -10 -19 0 -20 2 -8 10 19 13 30 13 30 0z m3114 -375 c3 -8 1
-15 -3 -15 -5 0 -11 7 -15 15 -3 8 -1 15 3 15 5 0 11 -7 15 -15z m-1209 -505
c-3 -5 -18 -10 -33 -9 l-27 1 25 8 c35 11 42 11 35 0z m201 -32 c-9 -5 -16
-19 -15 -31 0 -12 3 -16 6 -9 2 6 9 12 14 12 14 0 11 -38 -3 -43 -7 -2 1 -8
17 -12 17 -5 32 -11 35 -15 3 -3 22 -14 43 -23 20 -10 37 -22 37 -27 0 -4 13
-11 30 -15 30 -7 39 -19 71 -105 7 -19 20 -40 28 -46 10 -8 11 -13 3 -18 -7
-4 -12 -2 -12 3 0 6 -6 11 -14 11 -9 0 -12 -8 -8 -25 2 -14 8 -25 12 -25 4 0
10 -9 13 -21 3 -12 10 -18 16 -14 13 8 14 0 2 -23 -43 -82 -60 -123 -46 -112
8 7 15 18 15 25 0 7 14 26 30 43 17 18 30 40 30 49 0 10 11 32 25 48 19 24 24
26 25 12 0 -13 5 -17 19 -12 14 4 20 0 25 -17 10 -38 7 -65 -9 -78 -8 -7 -15
-25 -15 -41 0 -22 -7 -32 -27 -42 -28 -12 -52 -35 -53 -49 0 -17 21 -6 57 29
21 20 41 36 46 35 4 -1 7 2 7 7 0 5 14 32 31 60 30 47 49 58 49 27 0 -18 90
-13 101 6 14 22 -10 36 -26 15 -8 -12 -15 -14 -20 -8 -14 23 7 33 54 26 l46
-7 -27 22 c-19 15 -28 31 -28 51 0 16 5 29 10 29 6 0 10 -7 10 -15 0 -8 7 -15
15 -15 8 0 15 -6 15 -12 0 -9 4 -8 11 2 7 11 12 12 15 3 3 -7 21 -17 40 -23
32 -11 35 -15 29 -39 -4 -14 -11 -27 -16 -29 -5 -2 -9 -16 -9 -31 0 -15 -5
-32 -10 -37 -6 -6 -12 -31 -12 -55 -2 -49 -10 -59 -50 -59 -16 0 -28 -4 -28
-10 0 -5 8 -10 18 -10 24 0 42 -19 42 -45 0 -11 9 -26 20 -33 22 -14 17 -42
-9 -43 -12 0 -12 -2 4 -9 13 -5 24 -3 31 6 15 19 19 18 39 -12 13 -20 14 -28
4 -40 -9 -11 -7 -14 12 -14 12 0 33 -10 45 -21 18 -17 21 -26 13 -41 -5 -10
-6 -18 -2 -17 26 4 35 -1 23 -16 -12 -15 -5 -39 10 -30 5 3 11 1 15 -4 3 -6
-4 -15 -15 -21 -25 -14 -26 -33 -1 -25 11 3 22 1 26 -5 4 -6 13 -9 21 -6 9 4
18 -4 24 -20 19 -48 13 -56 -22 -34 -18 11 -40 20 -50 20 -9 0 -20 11 -25 24
-11 31 -79 106 -97 106 -26 0 -45 12 -40 25 3 7 -2 15 -10 18 -9 4 -16 2 -16
-3 0 -6 -4 -10 -10 -10 -5 0 -10 6 -10 14 0 8 -13 20 -30 28 -16 7 -30 16 -30
20 0 5 -8 8 -17 9 -12 0 -14 2 -5 6 18 7 -62 43 -92 42 -17 0 -14 -4 14 -17
l35 -16 -33 -4 c-21 -2 -41 3 -51 12 -13 12 -25 14 -49 7 -18 -5 -32 -7 -32
-4 0 3 -7 0 -15 -7 -8 -6 -19 -9 -25 -5 -5 3 -10 1 -10 -4 0 -16 -16 -13 -34
5 -15 14 -17 14 -22 0 -6 -16 -31 -21 -58 -10 -9 3 -14 9 -12 13 6 9 -57 7
-73 -3 -10 -7 -12 -6 -6 4 5 9 4 11 -3 6 -18 -11 -14 -26 5 -26 9 0 13 -3 9
-7 -4 -5 -33 -9 -63 -9 -34 -1 -59 -7 -65 -15 -7 -11 -11 -11 -15 -1 -6 16
-33 15 -57 -3 -27 -21 -86 -19 -101 2 -11 14 -16 15 -28 5 -10 -9 -17 -10 -22
-2 -10 16 -21 12 -35 -15 l-14 -25 -26 25 c-29 28 -45 31 -57 12 -4 -7 -21
-17 -38 -22 -16 -6 -30 -17 -30 -25 0 -11 -12 -13 -51 -11 -29 1 -55 -2 -59
-8 -10 -17 -48 -14 -41 4 7 18 -19 32 -61 31 -17 -1 -29 2 -26 7 12 19 -21 4
-41 -19 -20 -25 -26 -26 -62 -17 -32 7 -45 6 -71 -10 -18 -10 -33 -22 -33 -27
0 -4 -39 -7 -86 -7 -83 1 -85 2 -65 18 11 10 21 25 21 35 0 14 -3 15 -12 6 -7
-7 -20 -12 -29 -12 -9 0 -19 -7 -23 -15 -3 -8 -12 -12 -20 -9 -9 3 -19 -3 -26
-16 -9 -17 -14 -19 -26 -9 -8 6 -14 8 -14 4 0 -5 -9 0 -19 9 -25 22 -53 17
-66 -12 -5 -12 -18 -22 -28 -22 -10 0 -16 4 -13 9 4 5 -12 1 -33 -10 -22 -10
-49 -19 -60 -19 -12 0 -26 -9 -33 -20 -14 -22 -34 -26 -40 -9 -2 7 -22 6 -61
-6 -66 -19 -97 -14 -90 15 7 26 0 25 -56 -4 -78 -42 -119 -56 -124 -43 -3 9
-8 8 -21 -2 -9 -8 -19 -11 -23 -7 -3 3 -1 6 5 6 7 0 12 4 12 9 0 5 -15 5 -32
1 -19 -4 -32 -12 -30 -19 5 -22 -19 -43 -34 -30 -20 16 -50 2 -101 -47 -26
-24 -55 -46 -65 -50 -10 -3 -27 -23 -38 -45 -36 -70 -77 -129 -85 -121 -4 4
-4 -3 -1 -15 8 -27 -30 -103 -51 -103 -12 0 -17 -12 -14 -37 1 -6 -3 -14 -9
-18 -6 -4 -10 12 -10 44 0 28 3 51 8 51 4 0 7 14 8 30 1 35 12 50 22 33 5 -7
13 -9 21 -4 9 6 10 11 2 15 -8 5 -8 11 1 21 29 29 48 56 48 65 0 5 6 8 13 6 6
-1 8 -1 3 2 -4 2 -2 8 5 13 11 7 11 9 1 9 -7 0 -24 -12 -37 -27 -19 -23 -26
-26 -36 -15 -11 10 -10 12 5 12 9 0 14 5 11 10 -3 6 -1 10 4 10 6 0 11 13 11
29 0 17 4 32 9 35 5 3 7 15 4 25 -6 25 12 58 36 66 12 4 18 12 14 21 -3 8 1
14 8 14 8 0 -1 9 -18 20 -18 11 -33 24 -33 29 0 12 26 32 33 25 3 -4 9 6 13
20 8 35 -3 46 -15 15 -8 -22 -10 -23 -17 -5 -4 10 -2 27 4 37 7 10 12 28 12
40 0 16 -4 19 -20 14 -29 -9 -25 17 5 31 13 7 42 10 63 9 46 -4 55 1 73 39 15
32 47 51 36 22 -4 -10 -1 -16 8 -16 17 0 17 -2 9 -24 -3 -9 -14 -16 -23 -16
-14 0 -14 -2 -1 -10 13 -9 13 -11 0 -20 -12 -8 -11 -10 8 -10 14 0 26 8 32 23
5 12 9 16 9 10 1 -7 6 -13 12 -13 7 0 8 11 4 30 -6 29 9 44 17 18 3 -8 9 -5
16 9 10 17 9 25 -3 36 -21 22 -7 28 46 21 51 -7 73 5 98 54 8 14 18 21 27 18
9 -3 14 1 14 14 0 10 5 22 12 26 7 4 8 3 4 -4 -10 -16 14 -14 44 3 36 21 49
18 61 -12 7 -20 13 -23 21 -15 7 7 18 12 25 12 14 0 26 8 63 42 10 9 29 19 42
23 12 4 30 13 38 20 8 7 26 16 39 20 14 4 42 20 64 36 22 16 46 29 54 29 8 0
19 5 26 10 38 32 114 85 123 87 7 1 25 15 41 30 55 51 85 73 100 73 9 0 26 11
39 26 13 14 24 20 24 15 0 -17 47 -13 54 5 4 11 16 15 38 12 29 -3 33 0 36 25
2 19 9 27 23 27 10 0 19 5 19 10 0 6 9 10 20 10 12 0 35 8 53 17 18 9 35 16
39 15 4 -1 12 7 18 18 15 27 33 26 24 -2 -6 -21 -6 -21 11 -4 10 9 24 15 31
12 8 -3 18 3 24 13 5 11 24 24 42 30 29 10 35 9 50 -9 10 -12 22 -19 28 -15
17 11 11 25 -11 25 -15 0 -20 5 -17 23 2 17 9 22 31 22 15 -1 27 3 27 7 0 4
23 7 50 7 28 -1 50 -6 50 -10 0 -9 -28 -14 -62 -11 -12 1 -18 -5 -18 -17 0
-15 11 -22 46 -29 56 -12 79 -10 79 9 0 29 39 46 120 53 43 4 81 9 83 11 3 2
9 2 15 -2 5 -3 3 -10 -7 -15z m184 -38 c0 -5 -5 -10 -11 -10 -5 0 -7 5 -4 10
3 6 8 10 11 10 2 0 4 -4 4 -10z m111 -335 c5 4 9 -1 9 -9 0 -9 -8 -14 -20 -13
-21 1 -25 14 -13 44 7 16 8 16 11 -5 2 -12 8 -20 13 -17z m289 -5 c0 -5 -11
-10 -25 -10 -14 0 -25 5 -25 10 0 6 11 10 25 10 14 0 25 -4 25 -10z m133 -320
c3 -12 0 -20 -7 -20 -6 0 -12 9 -12 20 0 11 3 20 7 20 4 0 9 -9 12 -20z
m-2553 6 c0 -3 -4 -8 -10 -11 -5 -3 -10 -1 -10 4 0 6 5 11 10 11 6 0 10 -2 10
-4z m-106 -22 c8 -21 9 -18 -13 -43 l-20 -23 3 39 c5 45 4 43 15 43 5 0 12 -7
15 -16z m-158 -40 c-3 -9 -6 -20 -6 -25 0 -5 -7 -9 -15 -9 -18 0 -19 4 -3 30
15 24 33 27 24 4z m2499 -64 c3 -5 1 -10 -4 -10 -6 0 -11 5 -11 10 0 6 2 10 4
10 3 0 8 -4 11 -10z m30 -10 c3 -5 1 -10 -4 -10 -6 0 -11 5 -11 10 0 6 2 10 4
10 3 0 8 -4 11 -10z m98 -7 c-13 -2 -35 -2 -50 0 -16 2 -5 4 22 4 28 0 40 -2
28 -4z m-1146 -80 c3 -7 -3 -9 -17 -6 -29 8 -37 25 -9 21 12 -1 24 -8 26 -15z
m-47 -33 c0 -5 -4 -10 -10 -10 -5 0 -10 5 -10 10 0 6 5 10 10 10 6 0 10 -4 10
-10z m1954 -525 c-11 -28 -64 -31 -64 -2 0 8 3 8 12 -1 16 -16 28 -15 28 3 0
8 7 15 15 15 8 0 12 -6 9 -15z m-34 -131 c0 -2 -7 -4 -15 -4 -8 0 -15 4 -15
10 0 5 7 7 15 4 8 -4 15 -8 15 -10z m-43 -16 c-3 -8 -6 -5 -6 6 -1 11 2 17 5
13 3 -3 4 -12 1 -19z m-3455 -130 c-7 -7 -12 -8 -12 -2 0 14 12 26 19 19 2 -3
-1 -11 -7 -17z m2023 -138 c3 -5 2 -10 -4 -10 -5 0 -13 5 -16 10 -3 6 -2 10 4
10 5 0 13 -4 16 -10z m665 -184 c0 -3 -4 -8 -10 -11 -5 -3 -10 -1 -10 4 0 6 5
11 10 11 6 0 10 -2 10 -4z m-2288 -118 c-9 -9 -15 -9 -24 0 -9 9 -7 12 12 12
19 0 21 -3 12 -12z m3587 -10 c40 -108 60 -211 47 -243 -10 -27 -33 0 -40 46
-3 21 -9 57 -12 79 -5 34 -11 43 -40 55 -57 24 -41 81 24 84 7 1 16 -9 21 -21z
m-1551 -273 c-9 -9 -30 14 -23 25 6 9 10 8 17 -4 6 -10 8 -19 6 -21z m1645
-10 c-6 -16 -16 -19 -26 -8 -9 8 13 34 24 28 4 -3 6 -12 2 -20z m-678 -15 c3
-5 1 -10 -4 -10 -6 0 -11 5 -11 10 0 6 2 10 4 10 3 0 8 -4 11 -10z m632 -16
c3 -8 1 -26 -5 -38 -8 -18 -7 -27 4 -38 26 -25 7 -97 -36 -140 -21 -21 -47
-38 -59 -38 -12 0 -19 -5 -16 -12 8 -22 -8 -35 -50 -42 -58 -9 -66 -1 -52 57
9 42 14 48 33 44 15 -3 21 0 17 9 -3 7 -10 12 -16 11 -14 -3 -37 42 -37 74 0
22 4 26 26 23 14 -1 31 -10 38 -20 9 -12 15 -14 20 -6 4 7 17 12 29 12 37 0
50 16 49 55 -2 53 39 90 55 49z m55 -76 c3 -59 2 -68 -13 -68 -13 0 -18 11
-21 53 -3 50 10 103 23 89 4 -4 9 -37 11 -74z m-572 52 c0 -5 -6 -10 -14 -10
-8 0 -18 5 -21 10 -3 6 3 10 14 10 12 0 21 -4 21 -10z m44 -51 c-3 -5 -10 -7
-15 -3 -5 3 -7 10 -3 15 3 5 10 7 15 3 5 -3 7 -10 3 -15z m-1194 -3 c0 -8 10
-22 22 -30 l22 -16 -24 -1 c-24 -2 -24 -2 -2 -6 12 -2 22 -8 22 -13 0 -16 32
-41 46 -36 8 3 14 -1 14 -9 0 -8 -7 -15 -15 -15 -9 0 -15 -9 -15 -21 0 -16 5
-20 19 -16 22 5 57 -26 47 -42 -4 -5 3 -15 15 -21 19 -11 19 -13 5 -29 -15
-17 -15 -20 8 -42 17 -17 22 -27 15 -36 -13 -15 -39 -6 -40 16 0 9 -7 -4 -16
-27 -14 -40 -18 -44 -43 -40 -25 4 -29 1 -35 -29 -3 -18 -3 -39 1 -45 5 -8 2
-9 -10 -5 -10 4 -39 7 -65 7 -27 0 -56 7 -67 15 -18 14 -17 15 8 5 18 -6 29
-6 33 0 4 6 0 10 -7 10 -7 0 -31 9 -53 20 -36 18 -37 20 -10 15 l30 -6 -25 20
c-21 17 -23 22 -12 46 7 14 12 49 12 78 0 56 29 132 57 152 15 11 15 17 5 40
-11 24 -10 27 8 32 11 3 20 14 20 24 0 11 7 19 15 19 8 0 15 -6 15 -14z m1758
-41 c-3 -3 -9 2 -12 12 -6 14 -5 15 5 6 7 -7 10 -15 7 -18z m-3148 -41 c0 -17
-22 -14 -28 4 -2 7 3 12 12 12 9 0 16 -7 16 -16z m2424 -40 c12 -5 13 -9 3
-25 -15 -24 -29 -24 -51 0 -17 19 -17 20 6 24 13 2 24 5 25 6 1 0 8 -2 17 -5z
m-579 -72 c-7 -8 -35 7 -35 18 0 6 7 6 20 -2 10 -7 17 -14 15 -16z m148 2 c-7
-18 -19 -18 -26 0 -7 18 1 26 18 19 8 -2 11 -11 8 -19z m-199 -10 c20 -8 21
-24 2 -24 -8 0 -16 7 -20 15 -6 17 -4 18 18 9z m81 -15 c12 -19 -3 -22 -27 -5
l-22 16 21 0 c12 0 25 -5 28 -11z m575 -44 c0 -35 -14 -53 -26 -34 -5 8 -9 8
-14 -1 -9 -15 -30 -4 -30 15 0 7 10 15 23 17 14 2 23 11 25 26 5 34 22 16 22
-23z m-360 -5 c0 -5 -6 -10 -14 -10 -8 0 -18 5 -21 10 -3 6 3 10 14 10 12 0
21 -4 21 -10z m-203 -48 c-10 -2 -24 2 -32 8 -26 22 -16 29 18 12 25 -13 28
-17 14 -20z m198 18 c3 -5 2 -10 -4 -10 -5 0 -13 5 -16 10 -3 6 -2 10 4 10 5
0 13 -4 16 -10z m-440 -60 c3 -5 -1 -10 -9 -10 -9 0 -16 5 -16 10 0 6 4 10 9
10 6 0 13 -4 16 -10z m-170 -60 c3 -5 -1 -10 -9 -10 -9 0 -16 5 -16 10 0 6 4
10 9 10 6 0 13 -4 16 -10z m-1295 -80 c0 -5 -8 -10 -17 -10 -15 0 -16 2 -3 10
19 12 20 12 20 0z m1280 0 c0 -5 -4 -10 -10 -10 -5 0 -10 5 -10 10 0 6 5 10
10 10 6 0 10 -4 10 -10z m-506 -25 c16 -9 35 -14 42 -11 7 3 15 -5 18 -17 l6
-22 19 24 c11 15 21 20 25 13 4 -6 14 -8 23 -5 12 5 15 2 10 -10 -8 -20 28
-47 67 -51 15 -1 33 -11 40 -22 8 -10 22 -19 32 -19 9 0 19 -6 21 -12 6 -18
-22 -16 -40 2 -8 8 -17 12 -20 9 -3 -4 -27 1 -54 9 -65 21 -118 30 -183 31
-52 1 -76 -4 -223 -50 -53 -17 -58 -17 -74 -2 -22 23 -4 44 49 59 46 12 166
68 174 80 8 13 36 11 68 -6z m-537 -131 c-3 -3 -12 -4 -19 -1 -8 3 -5 6 6 6
11 1 17 -2 13 -5z m-83 -23 c8 -13 -21 -34 -39 -27 -20 7 -8 36 15 36 11 0 21
-4 24 -9z m-474 -21 c0 -5 -2 -10 -4 -10 -3 0 -8 5 -11 10 -3 6 -1 10 4 10 6
0 11 -4 11 -10z m-800 -55 c0 -8 -4 -15 -10 -15 -5 0 -7 7 -4 15 4 8 8 15 10
15 2 0 4 -7 4 -15z m-25 -35 c3 -5 1 -10 -4 -10 -6 0 -11 5 -11 10 0 6 2 10 4
10 3 0 8 -4 11 -10z m111 -42 c-3 -13 -6 -27 -6 -31 0 -5 -5 -5 -10 -2 -6 4
-8 11 -5 16 4 5 1 9 -4 9 -6 0 -11 7 -11 15 0 9 9 15 21 15 17 0 20 -4 15 -22z
m423 -35 c-1 -27 -17 -70 -18 -53 -1 9 -8 4 -17 -12 -14 -26 -58 -47 -71 -34
-13 13 17 54 51 70 20 9 36 23 36 31 0 8 5 15 10 15 6 0 10 -8 9 -17z m131 7
c0 -5 -2 -10 -4 -10 -3 0 -8 5 -11 10 -3 6 -1 10 4 10 6 0 11 -4 11 -10z
m-510 -182 l-9 -23 0 23 c-1 12 -6 22 -11 22 -6 0 -5 8 2 20 13 20 13 20 20 0
4 -11 3 -30 -2 -42z m265 22 c3 -6 -1 -7 -9 -4 -18 7 -21 14 -7 14 6 0 13 -4
16 -10z m1525 0 c-13 -8 -13 -10 2 -10 9 0 18 5 20 10 2 6 17 8 37 4 l34 -7
-21 -18 c-15 -12 -18 -19 -10 -22 7 -3 3 -6 -9 -6 -13 -1 -23 4 -23 9 0 16
-17 12 -24 -6 -3 -8 -2 -12 4 -9 6 3 10 1 10 -6 0 -6 -8 -9 -20 -6 -10 3 -21
0 -23 -6 -4 -12 -124 10 -133 25 -15 24 51 51 136 56 26 2 31 0 20 -8z m-525
-36 c35 -23 21 -37 -28 -30 -55 9 -64 17 -36 32 31 17 35 17 64 -2z m315 -24
c0 -5 -4 -10 -9 -10 -6 0 -13 5 -16 10 -3 6 1 10 9 10 9 0 16 -4 16 -10z
m-341 -29 c11 -7 9 -14 -14 -35 -15 -14 -33 -26 -39 -26 -19 0 -36 22 -36 47
0 20 5 23 38 23 20 0 43 -4 51 -9z m-146 -23 c-6 -11 -31 -10 -37 1 -3 5 5 8
18 7 13 0 22 -4 19 -8z m2647 -1418 c0 -5 -5 -10 -11 -10 -5 0 -7 5 -4 10 3 6
8 10 11 10 2 0 4 -4 4 -10z m130 -140 c0 -5 -4 -10 -10 -10 -5 0 -10 5 -10 10
0 6 5 10 10 10 6 0 10 -4 10 -10z m-3109 -127 c-24 -180 -23 -173 -7 -179 9
-3 13 -10 10 -15 -8 -13 6 -50 16 -44 11 7 22 -27 12 -37 -13 -13 -42 18 -43
45 0 19 -2 18 -11 -7 -8 -22 -7 -30 3 -37 9 -6 10 -9 2 -9 -22 0 -43 12 -43
26 0 17 -21 56 -35 66 -10 7 10 148 23 158 7 5 21 29 56 92 11 21 22 36 24 33
2 -2 -1 -44 -7 -92z m-1 -335 c0 -19 -2 -20 -10 -8 -13 19 -13 30 0 30 6 0 10
-10 10 -22z m37 0 c-3 -8 -6 -5 -6 6 -1 11 2 17 5 13 3 -3 4 -12 1 -19z"/>
<path d="M4218 6733 c12 -2 32 -2 45 0 12 2 2 4 -23 4 -25 0 -35 -2 -22 -4z"/>
<path d="M4489 6543 c-12 -15 -12 -16 4 -10 12 5 17 1 17 -13 0 -21 15 -27 25
-10 9 15 -4 50 -19 50 -8 0 -20 -8 -27 -17z"/>
<path d="M4954 6337 c-7 -8 -5 -18 10 -34 24 -28 46 -30 46 -3 0 12 -7 20 -16
20 -10 0 -14 6 -10 15 6 18 -14 19 -30 2z"/>
<path d="M5024 6313 c-1 -10 -6 -38 -12 -61 -10 -44 -10 -44 9 -23 12 13 19
35 19 61 0 38 -15 59 -16 23z"/>
<path d="M4885 6310 c3 -5 10 -10 16 -10 5 0 9 5 9 10 0 6 -7 10 -16 10 -8 0
-12 -4 -9 -10z"/>
<path d="M4823 6281 c1 -12 11 -22 24 -26 13 -3 23 -10 23 -16 0 -6 4 -8 9 -5
16 10 42 -6 52 -30 11 -30 25 -31 33 -1 9 33 7 49 -4 42 -6 -3 -14 4 -19 17
l-10 23 0 -22 c-1 -13 -7 -23 -15 -23 -10 0 -12 7 -8 23 4 18 3 20 -9 12 -20
-15 -54 -12 -54 4 0 8 -5 16 -12 18 -7 3 -11 -4 -10 -16z"/>
<path d="M3960 5989 c0 -5 5 -7 10 -4 6 3 10 8 10 11 0 2 -4 4 -10 4 -5 0 -10
-5 -10 -11z"/>
<path d="M5135 5950 c-3 -5 1 -10 10 -10 9 0 13 5 10 10 -3 6 -8 10 -10 10 -2
0 -7 -4 -10 -10z"/>
<path d="M2337 5933 c-8 -7 14 -53 23 -48 4 3 13 -2 20 -10 12 -14 30 -12 30
3 0 11 -67 62 -73 55z"/>
<path d="M2315 5810 c-7 -11 2 -30 13 -30 4 0 8 9 8 20 0 21 -11 26 -21 10z"/>
<path d="M2250 5790 c-6 -12 -9 -26 -6 -33 2 -7 5 -4 5 6 1 9 8 17 16 17 17 0
20 16 6 25 -6 3 -15 -4 -21 -15z"/>
<path d="M5490 7181 c0 -6 4 -13 10 -16 6 -3 7 1 4 9 -7 18 -14 21 -14 7z"/>
<path d="M5590 5071 c0 -14 5 -18 20 -14 24 6 26 19 4 27 -23 9 -24 8 -24 -13z"/>
<path d="M5650 5056 c0 -9 5 -16 10 -16 6 0 10 4 10 9 0 6 -4 13 -10 16 -5 3
-10 -1 -10 -9z"/>
<path d="M5637 5004 c-8 -8 1 -24 14 -24 5 0 9 7 9 15 0 15 -12 20 -23 9z"/>
<path d="M5690 4973 c0 -12 5 -25 10 -28 13 -8 13 15 0 35 -8 12 -10 11 -10
-7z"/>
<path d="M5590 4951 c0 -5 5 -13 10 -16 6 -3 10 -2 10 4 0 5 -4 13 -10 16 -5
3 -10 2 -10 -4z"/>
<path d="M5650 4929 c0 -5 5 -7 10 -4 6 3 10 8 10 11 0 2 -4 4 -10 4 -5 0 -10
-5 -10 -11z"/>
<path d="M5673 4915 c-3 -9 -3 -18 -1 -21 3 -3 8 4 11 16 6 23 -1 27 -10 5z"/>
<path d="M5801 4914 c0 -11 3 -14 6 -6 3 7 2 16 -1 19 -3 4 -6 -2 -5 -13z"/>
<path d="M5731 4854 c0 -11 3 -14 6 -6 3 7 2 16 -1 19 -3 4 -6 -2 -5 -13z"/>
<path d="M2321 4624 c0 -11 3 -14 6 -6 3 7 2 16 -1 19 -3 4 -6 -2 -5 -13z"/>
<path d="M2430 4616 c0 -9 5 -16 10 -16 6 0 10 4 10 9 0 6 -4 13 -10 16 -5 3
-10 -1 -10 -9z"/>
<path d="M2276 4601 c-18 -7 -18 -8 -3 -14 9 -3 17 -13 17 -21 0 -7 7 -17 16
-20 13 -5 15 -2 9 11 -4 10 -7 26 -7 36 1 18 -3 20 -32 8z"/>
<path d="M2332 4588 c-15 -15 -16 -28 -2 -28 6 0 10 6 10 14 0 8 6 17 13 19 6
3 7 6 2 6 -6 1 -16 -4 -23 -11z"/>
<path d="M4190 4589 c0 -5 5 -7 10 -4 6 3 10 8 10 11 0 2 -4 4 -10 4 -5 0 -10
-5 -10 -11z"/>
<path d="M2377 4573 c-10 -3 -16 -10 -14 -16 6 -20 24 -18 30 3 3 11 4 19 4
19 -1 -1 -10 -3 -20 -6z"/>
<path d="M5658 4532 c-18 -21 -29 -60 -18 -67 10 -6 36 25 43 52 7 30 -6 37
-25 15z"/>
<path d="M2340 4515 c0 -8 7 -15 15 -15 8 0 15 7 15 15 0 8 -7 15 -15 15 -8 0
-15 -7 -15 -15z"/>
<path d="M5440 4380 c0 -5 5 -10 11 -10 5 0 7 5 4 10 -3 6 -8 10 -11 10 -2 0
-4 -4 -4 -10z"/>
<path d="M4660 4275 c0 -28 7 -30 33 -11 18 14 16 18 -15 29 -14 5 -18 1 -18
-18z"/>
<path d="M5440 4273 c0 -13 5 -23 10 -23 13 0 13 11 0 30 -8 12 -10 11 -10 -7z"/>
<path d="M5335 4220 c-3 -5 3 -10 14 -10 12 0 21 5 21 10 0 6 -6 10 -14 10 -8
0 -18 -4 -21 -10z"/>
<path d="M5190 4186 c0 -9 5 -16 10 -16 6 0 10 4 10 9 0 6 -4 13 -10 16 -5 3
-10 -1 -10 -9z"/>
<path d="M5225 4160 c3 -5 8 -10 11 -10 2 0 4 5 4 10 0 6 -5 10 -11 10 -5 0
-7 -4 -4 -10z"/>
<path d="M4885 4120 c3 -5 16 -10 28 -9 21 0 21 1 2 9 -28 12 -37 12 -30 0z"/>
<path d="M4960 4120 c0 -5 7 -10 16 -10 8 0 12 5 9 10 -3 6 -10 10 -16 10 -5
0 -9 -4 -9 -10z"/>
<path d="M2908 4053 c7 -3 16 -2 19 1 4 3 -2 6 -13 5 -11 0 -14 -3 -6 -6z"/>
<path d="M6222 4008 c-5 -7 -12 -23 -16 -34 -6 -19 -3 -21 19 -16 20 3 25 10
25 33 0 31 -11 37 -28 17z"/>
<path d="M6196 3932 c-2 -4 -1 -14 3 -21 6 -10 10 -9 14 3 6 16 -8 32 -17 18z"/>
<path d="M2895 3900 c-4 -6 6 -10 24 -10 16 0 33 5 36 10 4 6 -6 10 -24 10
-16 0 -33 -4 -36 -10z"/>
<path d="M2825 3861 c-20 -4 -26 -9 -17 -14 20 -13 14 -27 -13 -27 -32 0 -56
-43 -35 -63 10 -9 11 -9 6 1 -4 6 -2 12 3 12 6 0 11 6 11 14 0 8 14 17 33 21
17 4 38 12 45 18 10 8 16 7 23 -4 7 -12 9 -11 9 2 0 9 7 20 16 23 8 3 12 10 9
16 -7 11 -43 11 -90 1z"/>
<path d="M6045 3817 c9 -41 22 -57 41 -50 25 9 16 47 -17 65 l-31 18 7 -33z"/>
<path d="M2758 3833 c6 -2 18 -2 25 0 6 3 1 5 -13 5 -14 0 -19 -2 -12 -5z"/>
<path d="M3240 3830 c0 -5 4 -10 9 -10 6 0 13 5 16 10 3 6 -1 10 -9 10 -9 0
-16 -4 -16 -10z"/>
<path d="M2825 3783 c-41 -6 -49 -24 -18 -40 27 -14 48 -8 24 6 -10 6 -5 11
18 16 17 3 31 11 31 16 0 9 -3 9 -55 2z"/>
<path d="M2627 3750 c-14 -11 -31 -20 -39 -20 -18 0 -38 -20 -38 -38 0 -12 4
-12 24 2 23 14 26 14 41 -1 13 -12 19 -13 28 -4 9 10 8 15 -6 22 -14 8 -16 14
-6 25 6 8 18 14 25 14 8 0 14 5 14 10 0 15 -15 12 -43 -10z"/>
<path d="M3222 3748 c-14 -14 -16 -28 -3 -28 5 0 11 9 14 20 6 23 5 24 -11 8z"/>
<path d="M2715 3730 c-3 -11 -13 -20 -21 -20 -8 0 -14 -4 -14 -10 0 -15 7 -12
40 12 33 24 38 38 16 38 -8 0 -18 -9 -21 -20z"/>
<path d="M2770 3670 c-9 -6 -10 -10 -3 -10 6 0 15 5 18 10 8 12 4 12 -15 0z"/>
<path d="M3040 3660 c0 -5 5 -10 11 -10 5 0 7 5 4 10 -3 6 -8 10 -11 10 -2 0
-4 -4 -4 -10z"/>
<path d="M2776 3592 c-3 -6 -1 -14 5 -17 15 -10 25 3 12 16 -7 7 -13 7 -17 1z"/>
<path d="M2736 3572 c-4 -7 -19 -17 -32 -22 -13 -5 -24 -15 -24 -21 0 -6 7 -9
15 -5 8 3 15 1 15 -3 0 -5 -7 -11 -15 -15 -8 -3 -15 -13 -15 -22 0 -11 5 -14
16 -10 9 3 18 6 20 6 2 0 4 10 4 21 0 12 7 27 16 34 9 6 14 20 12 31 -3 14 -6
16 -12 6z"/>
<path d="M2590 3551 c-12 -24 -13 -31 -2 -31 5 0 14 11 20 25 14 29 -2 34 -18
6z"/>
<path d="M2491 3546 c-8 -9 -11 -19 -7 -23 9 -9 29 13 24 27 -2 8 -8 7 -17 -4z"/>
<path d="M2540 3510 c0 -13 -7 -20 -20 -20 -14 0 -20 -7 -20 -24 0 -13 -6 -27
-12 -29 -8 -3 -6 -6 4 -6 13 -1 20 -13 24 -41 4 -22 11 -43 15 -46 5 -3 0 -19
-11 -35 -12 -16 -17 -29 -11 -29 6 0 11 5 11 10 0 6 6 10 14 10 12 0 14 17 13
83 -1 45 2 97 6 115 6 21 5 32 -2 32 -6 0 -11 -9 -11 -20z"/>
<path d="M2780 3519 c0 -5 5 -7 10 -4 6 3 10 8 10 11 0 2 -4 4 -10 4 -5 0 -10
-5 -10 -11z"/>
<path d="M2570 3489 c0 -5 5 -7 10 -4 6 3 10 8 10 11 0 2 -4 4 -10 4 -5 0 -10
-5 -10 -11z"/>
<path d="M2443 3373 c9 -2 23 -2 30 0 6 3 -1 5 -18 5 -16 0 -22 -2 -12 -5z"/>
<path d="M2586 3361 c-14 -5 -16 -10 -8 -15 7 -4 19 0 28 8 17 17 11 19 -20 7z"/>
<path d="M2490 3340 c0 -5 5 -10 10 -10 6 0 10 5 10 10 0 6 -4 10 -10 10 -5 0
-10 -4 -10 -10z"/>
<path d="M2437 3316 c-6 -16 11 -26 31 -19 10 4 10 8 1 19 -15 18 -25 18 -32
0z"/>
<path d="M2360 2760 c0 -5 5 -10 11 -10 5 0 7 5 4 10 -3 6 -8 10 -11 10 -2 0
-4 -4 -4 -10z"/>
<path d="M6120 1911 c0 -10 29 -36 34 -30 1 2 -6 12 -16 22 -10 9 -18 13 -18
8z"/>
<path d="M6190 1715 c0 -8 2 -15 4 -15 2 0 6 7 10 15 3 8 1 15 -4 15 -6 0 -10
-7 -10 -15z"/>
<path d="M6185 1650 c-3 -5 1 -10 9 -10 9 0 16 5 16 10 0 6 -4 10 -9 10 -6 0
-13 -4 -16 -10z"/>
</g>
</svg>
